<svg id="Layer_1" data-name="Layer 1" xmlns="http://www.w3.org/2000/svg" viewBox="142.44952392578125 145.5499725341797 1635.1005859375 396.92999267578125">
    <defs>
        <style>.cls-1{fill:#fff;}.cls-2{fill:#00c091;}</style>
    </defs>
    <title>Resume-Gig-White</title>
    <path class="cls-1" d="M255.25,450.18,218.93,327.56c-.58-1.13-1.29-1.71-2.14-1.71H194.15A1.89,1.89,0,0,0,192,328V449.33a5.09,5.09,0,0,1-5.12,5.13H147.58a5.09,5.09,0,0,1-5.13-5.13V160.5a5,5,0,0,1,1.49-3.63,5,5,0,0,1,3.64-1.49H227.9q22.64,0,40,10.9T294.76,197q9.63,19.88,9.62,45.51,0,26.5-10.25,45.71a68.74,68.74,0,0,1-28.63,29.06c-1.14.29-1.57,1.14-1.28,2.56l41.87,128.6a4.88,4.88,0,0,1,.43,2.14q0,3.86-4.7,3.85h-41C258,454.46,256.1,453,255.25,450.18ZM192,200.24v85a1.88,1.88,0,0,0,2.14,2.13h26.06a30.57,30.57,0,0,0,25-12q9.63-12,9.62-32.48t-9.62-32.68a30.34,30.34,0,0,0-25-12.17H194.15A1.88,1.88,0,0,0,192,200.24Z" />
    <path class="cls-1" d="M482.33,362a4.94,4.94,0,0,1-3.63,1.5H384.28a1.88,1.88,0,0,0-2.14,2.12v19.24q0,13.24,7.26,21.79a23.55,23.55,0,0,0,18.81,8.55A24.67,24.67,0,0,0,425.08,409a28.85,28.85,0,0,0,9.19-16c.85-2.83,2.7-4.26,5.55-4.26l38,1.69a5,5,0,0,1,3.63,1.51,4.4,4.4,0,0,1,1.07,4.05q-3,29.93-21.79,45.94t-52.55,16q-35,0-55.34-18.59t-20.29-50.62V301.93q0-31.18,20.29-50.21t55.34-19q35,0,55.33,19t20.29,50.21v56.4A4.91,4.91,0,0,1,482.33,362ZM389.4,284q-7.26,8.53-7.26,21.79V325a1.89,1.89,0,0,0,2.14,2.14h48.28A1.89,1.89,0,0,0,434.7,325V305.78q0-13.66-7.27-22t-19.22-8.33A23.52,23.52,0,0,0,389.4,284Z" />
    <path class="cls-1" d="M530.83,440.79q-20.1-16.25-20.08-44v-3a4.93,4.93,0,0,1,1.49-3.62,5,5,0,0,1,3.64-1.49h36.74a5.09,5.09,0,0,1,5.12,5.11v2.14a21.66,21.66,0,0,0,7.91,17.1q7.89,6.84,19.44,6.83,11.11,0,17.52-6.4A22,22,0,0,0,609,397.2a19.85,19.85,0,0,0-5.55-14.31,40.53,40.53,0,0,0-12-8.76q-6.4-3-23.07-9.83-24.36-9.37-39.95-23.92t-15.6-43.15q0-29.89,19-46.79t51.49-16.87q33.33,0,52.76,17.72t19.45,47.65a5.14,5.14,0,0,1-5.13,5.13H614.57a5.14,5.14,0,0,1-5.13-5.13v-2.57a22.75,22.75,0,0,0-7.05-17.08q-7-6.84-17.73-6.84-11.11,0-17.73,7a23.81,23.81,0,0,0-6.62,16.88,19.42,19.42,0,0,0,5.13,13.68A40.12,40.12,0,0,0,577,318.81q6.42,3.21,21.36,9.61a243.34,243.34,0,0,1,30.13,14.31,68.15,68.15,0,0,1,21.36,20.08Q659,375.86,659,395.07q0,28.64-20.09,45.3T584.66,457Q550.91,457,530.83,440.79Z" />
    <path class="cls-1" d="M787.82,237.63a4.91,4.91,0,0,1,3.63-1.5h39.3a5.1,5.1,0,0,1,5.13,5.12V449.33a5.09,5.09,0,0,1-5.13,5.13h-39.3a5.1,5.1,0,0,1-5.13-5.13v-9.39a1.71,1.71,0,0,0-.85-1.71c-.58-.28-1.14,0-1.71.85Q771.37,457.46,744,457.45q-26.07,0-42.08-15.59t-16-48.08V241.25a5.12,5.12,0,0,1,5.12-5.12h39.31a5.12,5.12,0,0,1,5.13,5.12V383.11q0,32,24.78,32.05,12.39,0,19.22-9.2t6.84-25V241.25A4.94,4.94,0,0,1,787.82,237.63Z" />
    <path class="cls-1" d="M1107,252.15q14.31,19.46,14.31,54V449.33a5.1,5.1,0,0,1-5.13,5.13h-38.88a5.09,5.09,0,0,1-5.12-5.13V309.62q0-16.23-6.41-25.2a20.4,20.4,0,0,0-17.52-9q-12,0-18.8,9t-6.83,24.78V449.33a5.1,5.1,0,0,1-5.13,5.13H978.58a5.1,5.1,0,0,1-5.13-5.13V309.62q0-16.23-6.62-25.2t-17.3-9q-12,0-18.8,9T923.9,309.2V449.33a5.1,5.1,0,0,1-5.13,5.13H879.89a5.09,5.09,0,0,1-5.13-5.13V241.25a5.1,5.1,0,0,1,5.13-5.12h38.88a5.12,5.12,0,0,1,5.13,5.12v6.84a1.71,1.71,0,0,0,.85,1.71c.57.28,1.13,0,1.71-.85a52,52,0,0,1,19.23-12.4,61.83,61.83,0,0,1,20.94-3.83q31.59,0,46.56,26.92,1.29,1.69,3.85-1.29,8.54-13.68,21.57-19.66a62.62,62.62,0,0,1,26.28-6Q1092.67,232.72,1107,252.15Z" />
    <path class="cls-1" d="M1305.22,362a4.94,4.94,0,0,1-3.63,1.5h-94.43a1.88,1.88,0,0,0-2.13,2.12v19.24q0,13.24,7.26,21.79a23.53,23.53,0,0,0,18.8,8.55A24.68,24.68,0,0,0,1248,409a28.84,28.84,0,0,0,9.18-16c.86-2.83,2.71-4.26,5.56-4.26l38,1.69a5,5,0,0,1,3.63,1.51,4.37,4.37,0,0,1,1.07,4.05q-3,29.93-21.8,45.94t-52.55,16q-35,0-55.33-18.59t-20.3-50.62V301.93q0-31.18,20.3-50.21t55.33-19q35,0,55.34,19t20.29,50.21v56.4A4.91,4.91,0,0,1,1305.22,362Zm-92.93-78q-7.27,8.53-7.26,21.79V325a1.88,1.88,0,0,0,2.13,2.14h48.29a1.89,1.89,0,0,0,2.13-2.14V305.78q0-13.66-7.26-22t-19.23-8.33A23.5,23.5,0,0,0,1212.29,284Z" />
    <path class="cls-2" d="M1361.19,436.73q-22-21.15-22-56.18V229.3q0-35,22-56.19T1419.51,152q36.32,0,58.75,21.15t22.43,56.62v16.65a5.1,5.1,0,0,1-5.13,5.13h-39.3a5.1,5.1,0,0,1-5.13-5.13V228.87q0-15.39-8.75-24.78t-22.87-9.4q-14.09,0-22.64,9.4t-8.55,24.78V381q0,15.38,8.55,24.78t22.64,9.41q14.12,0,22.87-9.41t8.75-24.78V340a1.89,1.89,0,0,0-2.14-2.14h-26.06a5.1,5.1,0,0,1-5.13-5.12V301.5a5.12,5.12,0,0,1,5.13-5.13h72.63a5.1,5.1,0,0,1,5.13,5.13v79.05q0,35-22.43,56.18t-58.75,21.15Q1383.21,457.88,1361.19,436.73Z" />
    <path class="cls-2" d="M1542.56,197.68q-8.55-8.53-8.55-21.79t8.55-21.79q8.54-8.55,21.79-8.55t21.58,8.55q8.33,8.53,8.33,21.79t-8.55,21.79q-8.54,8.55-21.36,8.55Q1551.11,206.23,1542.56,197.68ZM1541.5,453a5,5,0,0,1-1.51-3.64V241.25a5.14,5.14,0,0,1,5.13-5.12h39.31a5.1,5.1,0,0,1,5.13,5.12V449.33a5.09,5.09,0,0,1-5.13,5.13h-39.31A4.9,4.9,0,0,1,1541.5,453Z" />
    <path class="cls-2" d="M1729.48,237.63a4.91,4.91,0,0,1,3.63-1.5h39.31a5.12,5.12,0,0,1,5.13,5.12V446.34q0,46.14-20.94,71.14t-74.77,25q-9.4,0-14.1-.43-5.13-.43-5.13-5.56v-32.9q0-5.55,5.56-4.7,24.35.42,37.39-6t17.73-18.81q4.7-12.39,4.69-32.47V437c0-.86-.28-1.36-.84-1.51s-1.15.22-1.71,1.08q-14.12,18.38-40.17,18.37-28.63,0-43.58-18.59t-15-50.63V301.93q0-32.91,15.17-51.06t43.37-18.15q26,0,40.17,18.37c.56.85,1.12,1.21,1.71,1.06s.84-.64.84-1.49v-9.41A4.94,4.94,0,0,1,1729.48,237.63Zm-8.55,166.19q7-8.31,7-21.56V305.78q0-13.66-7-22t-18.59-8.33a23.47,23.47,0,0,0-18.79,8.55q-7.27,8.53-7.27,21.79v76.48q0,13.25,7.27,21.56a23.75,23.75,0,0,0,18.79,8.34Q1713.89,412.16,1720.93,403.82Z" />
</svg>